<svg width="24" height="24" viewBox="0 0 24 24" fill="none" xmlns="http://www.w3.org/2000/svg">
<path d="M22.8604 9.24597C22.5521 8.09047 21.7189 6.69591 20.384 5.10101C18.3046 2.70821 15.7336 1.50684 11.9814 1.50684C8.53537 1.50684 5.47333 2.76914 3.41794 5.08271C0.046884 8.86005 0.937299 11.1442 1.74369 11.9693C1.85457 12.0827 1.97553 12.1835 2.10375 12.271V14.3951C2.10375 16.4646 3.1558 18.3964 5.06604 19.8349C6.92011 21.2311 9.37609 22.0001 11.9813 22.0001C14.5865 22.0001 17.0424 21.2311 18.8965 19.8349C20.8068 18.3964 21.8589 16.4645 21.8589 14.3951V12.3095C21.8604 12.3086 21.8617 12.308 21.8633 12.3071C22.143 12.149 22.388 11.9296 22.5718 11.6724C22.8826 11.2373 23.185 10.4632 22.8604 9.24597ZM11.9814 20.8702C7.25169 20.8702 3.38023 18.1231 3.17053 14.6883C3.35429 15.3018 3.69454 15.9079 4.46463 16.314C4.47485 16.3194 4.48529 16.3244 4.49579 16.3291C5.7039 16.8651 6.52967 16.3219 7.19333 15.8854C7.73877 15.5267 8.09784 15.3138 8.5833 15.443C8.59866 15.4471 8.61417 15.4505 8.62989 15.4531C8.91847 15.5012 9.02195 15.8768 9.18929 16.7223C9.42261 17.901 9.77512 19.6822 11.9592 19.7842C11.9668 19.7845 11.9979 19.7845 12.0058 19.7841C14.2513 19.677 14.5832 17.8832 14.8028 16.6962C14.9683 15.8021 15.0682 15.4972 15.3339 15.4534C15.3499 15.4508 15.3657 15.4474 15.3815 15.4432C15.867 15.3135 16.226 15.5268 16.7714 15.8856C17.4351 16.3223 18.261 16.8654 19.4695 16.3293C19.48 16.3246 19.4904 16.3196 19.5006 16.3142C20.2723 15.9074 20.6141 15.2454 20.7972 14.5922C20.6547 18.0718 16.7551 20.8702 11.9814 20.8702ZM21.8944 10.6383C21.7606 11.2449 21.1668 11.3954 21.1493 11.4022C20.2231 11.7084 20.069 12.6761 19.9452 13.4563C19.7995 14.3749 19.6657 14.9593 19.0479 15.2932C18.3813 15.5826 17.9778 15.3526 17.3257 14.9238C16.7695 14.558 16.0788 14.1034 15.148 14.3414C14.1264 14.5263 13.9265 15.6073 13.7656 16.4773C13.5248 17.7784 13.3092 18.582 11.982 18.6545C10.7031 18.5854 10.4802 17.785 10.2238 16.4888C10.0507 15.6142 9.8356 14.5274 8.81718 14.3412C7.88666 14.1029 7.19523 14.5576 6.63914 14.9236C5.98712 15.3524 5.58378 15.5822 4.91731 15.2928C4.27551 14.947 4.15561 14.4079 4.01428 13.5604C3.8924 12.8293 3.7405 11.9205 2.88956 11.439C2.88639 11.4372 2.25199 11.1934 2.13039 10.5013C2.02241 9.88669 2.11658 8.47647 4.37363 5.84574C4.37596 5.84303 4.378 5.83994 4.38026 5.83715C4.38167 5.83557 4.38315 5.83422 4.38449 5.83248C5.97359 3.8613 8.8845 2.63673 11.9814 2.63673C15.4074 2.63673 18.0982 3.76249 19.5585 5.80672C19.5619 5.81147 19.5657 5.81546 19.5691 5.81998C19.5744 5.82699 19.5792 5.83407 19.5849 5.84077C19.7368 6.02205 21.3756 8.46426 19.9439 9.98249C18.8415 11.1514 16.4868 12.0023 13.5987 12.2095C10.9593 12.3988 8.36161 12.0133 7.13532 11.25C5.85975 10.456 5.15733 9.43366 5.15733 8.37117C5.1574 7.30876 5.85982 6.28642 7.13532 5.49258C9.37446 4.09862 13.0178 4.09862 15.2571 5.49258C16.0125 5.96278 16.4286 6.55469 16.4286 7.15918C16.4286 7.76375 16.0125 8.35566 15.2571 8.82578C13.9005 9.67046 11.6079 9.67061 10.2509 8.82571C9.83455 8.56662 9.59566 8.24186 9.59566 7.93487C9.59566 7.62788 9.83448 7.30319 10.2509 7.0441C11.0472 6.54822 12.4835 6.42778 13.2136 7.009C13.3612 7.12657 13.4498 7.28579 13.4391 7.41473C13.4317 7.50225 13.372 7.57666 13.2612 7.63578C13.014 7.76789 12.3124 7.84208 12.129 7.4661C11.994 7.18923 11.6747 7.08176 11.4159 7.22606C11.1569 7.37014 11.0563 7.71125 11.1913 7.98796C11.6935 9.01829 13.0135 9.0311 13.7341 8.64615C14.1759 8.41019 14.4522 7.9976 14.4922 7.51422C14.5359 6.98776 14.294 6.46017 13.8452 6.10294C12.7111 5.20035 10.8202 5.38202 9.71859 6.06777C8.95745 6.54144 8.53826 7.20445 8.53826 7.93471C8.53826 8.66506 8.95745 9.32822 9.71866 9.80188C11.4208 10.8615 14.0874 10.8617 15.7893 9.80188C16.8834 9.12095 17.4858 8.18243 17.4858 7.15911C17.4858 6.13578 16.8833 5.19726 15.7893 4.51633C14.554 3.74735 12.9227 3.32384 11.1961 3.32384C9.46948 3.32384 7.8383 3.74735 6.60305 4.51633C4.989 5.52105 4.10006 6.89 4.09999 8.37102C4.09999 9.8522 4.98886 11.2213 6.60305 12.2261C7.78522 12.962 9.91462 13.3873 12.2606 13.3873C12.7237 13.3873 13.1952 13.3707 13.6695 13.3366C16.857 13.108 19.4196 12.1731 20.7003 10.7717C21.1111 10.3222 21.4931 9.717 21.6325 8.94712C21.9903 9.80075 21.9625 10.3295 21.8944 10.6383Z" fill="black"/>
</svg>
