<?xml version="1.0" standalone="no"?>
<!DOCTYPE svg PUBLIC "-//W3C//DTD SVG 20010904//EN"
 "http://www.w3.org/TR/2001/REC-SVG-20010904/DTD/svg10.dtd">
<svg version="1.0" xmlns="http://www.w3.org/2000/svg"
 width="500.000000pt" height="500.000000pt" viewBox="0 0 500.000000 500.000000"
 preserveAspectRatio="xMidYMid meet">

<g transform="translate(0.000000,500.000000) scale(0.100000,-0.100000)"
fill="#000000" stroke="none">
<path d="M2577 4013 c-4 -3 -7 -23 -7 -44 l0 -37 34 34 c19 19 42 34 53 35 13
1 11 3 -7 9 -32 10 -65 12 -73 3z"/>
<path d="M2737 3959 c4 -13 8 -18 11 -10 2 7 -1 18 -6 23 -8 8 -9 4 -5 -13z"/>
<path d="M2430 3910 c-14 -5 -42 -12 -62 -15 -20 -3 -55 -20 -76 -38 -22 -18
-53 -39 -69 -48 -18 -10 -33 -28 -37 -45 -4 -16 -19 -46 -33 -67 -59 -86 -62
-303 -5 -375 12 -15 28 -41 36 -58 12 -28 63 -74 81 -74 4 0 22 -13 41 -29 23
-20 48 -32 81 -36 26 -3 58 -10 71 -16 33 -13 74 -11 96 6 11 8 34 15 50 15
17 0 45 8 63 18 98 53 133 77 138 93 3 9 19 34 35 54 40 50 51 91 52 187 2
112 -14 180 -54 234 -18 25 -41 56 -51 70 -10 13 -33 32 -50 40 -18 9 -41 25
-52 35 -38 35 -205 67 -255 49z m107 -24 c21 -8 55 -17 76 -20 22 -3 54 -17
72 -31 19 -14 38 -25 43 -25 6 0 23 -16 38 -35 16 -19 42 -50 57 -69 15 -19
30 -52 33 -73 3 -21 10 -50 16 -65 16 -43 0 -179 -25 -219 -12 -18 -31 -49
-42 -68 -11 -21 -37 -45 -60 -56 -21 -11 -48 -28 -59 -38 -19 -16 -50 -27
-122 -42 -30 -6 -30 -5 -27 32 l2 38 -10 -44 -11 -43 -41 7 c-23 3 -63 10 -89
14 -25 4 -55 14 -65 22 -30 24 -37 29 -73 52 -19 12 -42 36 -50 53 -9 17 -26
43 -38 59 -12 15 -22 42 -22 59 0 17 -7 50 -15 74 -13 38 -13 47 0 78 8 20 15
50 15 67 0 16 11 44 24 61 13 17 27 42 31 56 9 30 44 70 61 70 7 0 31 16 54
35 28 24 52 35 73 35 18 0 50 7 72 15 22 8 41 14 42 15 2 0 20 -6 40 -14z"/>
<path d="M2360 3820 c-11 -7 -5 -9 23 -8 20 1 37 5 37 10 0 11 -41 10 -60 -2z"/>
<path d="M2509 3721 c-13 -11 -21 -22 -18 -25 3 -3 16 5 29 19 28 30 22 33
-11 6z"/>
<path d="M2773 3665 c-15 -13 -23 -25 -17 -25 6 0 21 11 34 25 30 32 19 32
-17 0z"/>
<path d="M2180 3642 c0 -5 10 -17 21 -28 22 -19 22 -19 10 3 -12 24 -31 39
-31 25z"/>
<path d="M2633 3618 c-55 -27 -50 -114 8 -138 16 -7 26 -16 24 -21 -3 -4 7 -2
22 6 15 8 34 15 41 15 7 0 11 4 8 9 -3 4 0 22 6 39 10 25 9 34 -5 56 -9 14
-27 30 -39 37 -20 9 -20 8 3 -13 33 -29 41 -51 29 -82 -29 -77 -146 -38 -125
41 l8 28 6 -25 c9 -35 55 -36 59 -1 2 15 -3 28 -12 33 -9 5 -14 13 -11 19 7
11 6 11 -22 -3z"/>
<path d="M2290 3598 c-37 -40 -19 -110 33 -128 26 -9 35 -7 64 15 27 22 33 33
33 64 0 39 -23 71 -51 71 -9 0 -7 -5 6 -12 27 -15 35 -28 35 -59 0 -33 -19
-56 -52 -64 -21 -5 -33 -1 -52 19 -30 29 -33 56 -8 83 9 10 13 13 9 6 -5 -6
-6 -22 -2 -33 5 -16 14 -20 33 -18 34 4 43 43 15 63 -25 20 -39 18 -63 -7z"/>
<path d="M2365 3530 c-4 -6 -3 -16 3 -22 6 -6 12 -6 17 2 4 6 3 16 -3 22 -6 6
-12 6 -17 -2z"/>
<path d="M2690 3525 c0 -8 7 -15 15 -15 8 0 15 7 15 15 0 8 -7 15 -15 15 -8 0
-15 -7 -15 -15z"/>
<path d="M2799 3393 c12 -24 31 -39 31 -25 0 5 -10 17 -21 28 -22 19 -22 19
-10 -3z"/>
<path d="M2563 3363 c9 -2 23 -2 30 0 6 3 -1 5 -18 5 -16 0 -22 -2 -12 -5z"/>
<path d="M2313 3305 c-15 -13 -23 -25 -17 -25 6 0 21 11 34 25 30 32 19 32
-17 0z"/>
<path d="M2511 2874 c-45 -57 -35 -156 20 -197 71 -52 189 -20 213 59 5 18 1
22 -23 27 -17 4 -39 15 -50 26 -10 10 -32 22 -49 26 -33 7 -56 29 -66 63 -9
29 -20 28 -45 -4z"/>
<path d="M2935 2847 c-44 -19 -100 -44 -124 -56 l-44 -23 29 -23 29 -23 3
-331 c3 -303 -2 -394 -23 -443 -7 -17 4 -18 143 -18 l150 0 -15 41 c-8 23 -13
68 -11 100 l3 58 50 -66 c65 -86 139 -133 223 -140 33 -3 72 -3 86 1 l26 6 0
124 c0 89 -3 125 -12 128 -7 3 -40 -4 -73 -15 -133 -42 -273 17 -300 126 -10
37 12 85 46 102 45 24 141 19 215 -11 35 -14 74 -24 87 -22 21 3 22 8 25 104
3 124 0 129 -102 129 -95 -1 -160 -30 -226 -102 l-50 -54 -2 218 -3 218 -25 3
c-14 1 -61 -13 -105 -31z"/>
<path d="M806 2853 c5 -10 10 -211 12 -447 2 -374 1 -432 -13 -452 l-15 -24
109 0 c123 0 152 7 177 46 15 23 16 32 5 72 -6 25 -34 82 -60 126 -110 184
-141 271 -141 403 0 89 16 127 43 105 26 -22 67 -121 148 -360 87 -256 102
-292 125 -292 22 0 36 41 99 290 79 313 117 402 151 355 11 -15 14 -84 14
-360 0 -292 -2 -344 -16 -363 l-15 -22 155 0 155 0 -15 35 c-21 51 -21 819 0
870 l15 35 -143 0 c-79 0 -157 -5 -174 -11 -38 -13 -57 -52 -107 -219 -20 -69
-40 -128 -44 -133 -4 -4 -29 62 -55 147 -27 85 -59 167 -71 183 l-23 28 -162
3 c-154 3 -162 2 -154 -15z"/>
<path d="M1975 2590 c-121 -26 -165 -70 -165 -163 0 -91 36 -88 117 8 97 116
157 142 209 90 19 -20 24 -34 22 -62 -3 -41 -7 -43 -107 -74 -171 -52 -273
-167 -273 -308 0 -87 54 -149 137 -159 64 -7 108 5 164 43 28 19 56 35 63 35
7 0 20 -15 28 -33 l15 -32 128 -3 128 -3 -13 23 c-9 16 -15 87 -18 233 -5 191
-7 214 -27 251 -55 103 -144 153 -280 159 -49 2 -106 0 -128 -5z m183 -372 c2
-119 1 -128 -20 -152 -23 -25 -34 -29 -76 -27 -59 3 -83 141 -41 229 24 49 71
84 109 80 l25 -3 3 -127z"/>
<path d="M2645 2581 c-27 -10 -83 -35 -124 -56 l-75 -37 25 -18 c24 -19 24
-21 27 -213 3 -177 -3 -263 -23 -309 -7 -17 4 -18 144 -18 l152 0 -13 23 c-10
16 -14 106 -18 332 -6 353 1 332 -95 296z"/>
<path d="M3995 2582 c-100 -35 -153 -98 -109 -129 10 -8 38 -27 60 -43 62 -42
86 -100 86 -203 -1 -95 -15 -161 -42 -197 -18 -24 -19 -24 -38 -7 -38 34 -152
436 -152 535 l0 52 -155 0 c-85 0 -155 -2 -155 -5 0 -3 9 -23 19 -43 17 -33
106 -315 156 -496 10 -36 28 -70 45 -87 28 -28 31 -29 135 -29 l106 0 -3 -27
c-7 -58 -109 -83 -196 -48 -55 22 -65 14 -96 -84 -28 -90 -24 -105 37 -122
104 -28 189 6 241 96 67 113 237 605 244 705 9 133 -52 177 -183 132z"/>
<path d="M2763 1664 c-7 -18 11 -39 26 -30 17 11 13 46 -4 46 -9 0 -18 -7 -22
-16z"/>
<path d="M2245 1640 c-21 -40 -19 -82 6 -114 32 -40 100 -29 98 17 0 12 -3 16
-6 10 -16 -40 -93 12 -93 63 0 30 13 37 44 22 24 -10 25 -12 10 -29 -18 -20
-12 -49 10 -49 21 0 31 21 16 30 -11 7 -10 13 3 34 26 38 21 46 -28 46 -39 0
-46 -4 -60 -30z"/>
<path d="M2643 1663 c-9 -3 -13 -30 -13 -84 0 -78 0 -79 25 -79 17 0 25 6 25
17 0 15 1 15 18 0 26 -23 52 -22 52 3 0 14 -7 20 -22 20 -33 0 -52 15 -44 35
4 13 13 15 36 10 26 -6 30 -4 30 14 0 24 -37 30 -58 9 -9 -9 -12 -4 -12 25 0
36 -8 42 -37 30z"/>
<path d="M2387 1602 c-35 -38 -12 -102 36 -102 28 0 41 9 56 37 30 57 -49 113
-92 65z m54 -19 c13 -34 8 -68 -10 -68 -17 0 -33 52 -25 78 8 25 23 21 35 -10z"/>
<path d="M2517 1602 c-35 -38 -12 -102 36 -102 28 0 41 9 56 37 30 57 -49 113
-92 65z m54 -19 c13 -34 8 -68 -10 -68 -17 0 -33 52 -25 78 8 25 23 21 35 -10z"/>
<path d="M2773 1613 c-8 -3 -13 -25 -13 -59 0 -49 2 -54 23 -54 21 0 22 3 19
60 -4 60 -6 63 -29 53z"/>
<path d="M2836 1604 c-9 -8 -16 -28 -16 -44 0 -47 38 -72 84 -54 24 9 19 24
-7 24 -31 0 -76 57 -52 66 23 9 48 -4 41 -21 -4 -10 1 -15 14 -15 23 0 27 29
8 48 -17 17 -54 15 -72 -4z"/>
<path d="M2940 1600 c-15 -27 19 -60 62 -60 24 0 29 -3 21 -11 -9 -9 -20 -9
-43 1 -34 14 -46 9 -36 -15 4 -12 16 -15 42 -13 45 4 65 28 47 57 -9 15 -9 21
-1 23 6 2 9 12 5 21 -10 26 -83 23 -97 -3z m56 -5 c15 -11 16 -14 3 -15 -8 0
-24 7 -35 15 -15 11 -16 14 -3 15 8 0 24 -7 35 -15z"/>
<path d="M2185 1570 c-8 -13 4 -32 16 -25 12 8 12 35 0 35 -6 0 -13 -4 -16
-10z"/>
</g>
</svg>
